<svg width="102" height="42" viewBox="0 0 102 42" fill="none" xmlns="http://www.w3.org/2000/svg">
<g id="Page-1">
<g id="PickMe-2.3">
<g id="Mini-Copy">
<path id="Combined-Shape" fill-rule="evenodd" clip-rule="evenodd" d="M49.9545 0C56.0535 0.183109 67.7648 7.25861 71.6685 9.63761L72.096 9.88136C75.084 11.7106 77.9513 12.2596 78.2558 12.3211C78.744 12.4434 90.0285 15.0661 93.627 16.1634C97.5915 17.3229 99.2385 20.1894 99.2992 20.3116L101.617 26.1061L101.678 26.2884C101.739 26.5329 102.167 31.9614 98.8118 33.9744C95.9445 35.6821 94.4198 35.8036 93.993 35.8036H91.3703C90.2723 38.8539 87.4057 40.9276 84.1117 40.9276C80.8177 40.9276 77.9512 38.9146 76.8532 35.8036H23.7877L21.7747 35.6214C20.8597 38.9754 17.871 41.3544 14.3333 41.3544C10.4295 41.3544 7.07475 38.3656 6.70875 34.4619L5.30625 34.3404L5.12325 34.2181C0.24375 31.0464 0 26.1061 0 25.1304C0 23.6664 0.8535 22.9951 1.34175 22.7514V22.6906C1.2195 14.0896 3.11025 11.9551 3.47625 11.6499C3.9645 11.1624 8.05125 7.38086 11.6497 4.63586C11.6497 4.63586 11.7105 4.57436 11.8328 4.51361C11.955 4.45286 12.0765 4.33061 12.1988 4.26986C12.2595 4.26986 12.2595 4.20911 12.3203 4.20911C12.9915 3.72086 14.0895 2.92736 14.4555 2.68361H14.5163C18.1032 0.200716 20.5918 0.0138906 21.3499 0.000825264L49.9545 0ZM14.2725 27.6309C11.7105 27.6309 9.45375 29.2164 8.53875 31.5954C8.41725 31.9614 8.295 32.3274 8.23425 32.6934C8.23425 32.8764 8.17275 33.1201 8.17275 33.3031V33.7914C8.17275 33.9744 8.23425 34.1574 8.23425 34.4011C8.5995 37.5121 11.1615 39.8911 14.3333 39.8911C17.0783 39.8911 19.518 37.9996 20.25 35.3161C20.3722 34.9501 20.433 34.5841 20.433 34.2181C20.433 34.0351 20.433 33.8521 20.3722 33.6691V33.5476C20.3722 33.1809 20.3107 32.8156 20.25 32.4496C19.6402 29.6439 17.139 27.6309 14.2725 27.6309ZM84.1117 27.2041C80.94 27.2041 78.3173 29.6439 78.012 32.7541L78.013 33.9989C78.0158 34.1532 78.0274 34.3246 78.0735 34.4619C78.1343 34.8279 78.2557 35.1939 78.378 35.5599C79.293 37.8781 81.5498 39.4029 84.051 39.4029C86.5515 39.4029 88.8083 37.9389 89.7233 35.5599C89.8455 35.1939 89.967 34.8279 90.0285 34.4619C90.0893 34.0966 90.15 33.7914 90.15 33.4254L90.2723 33.3646C90.2723 33.0594 90.2108 32.6934 90.15 32.3274C89.6618 29.3386 87.1005 27.2041 84.1117 27.2041ZM14.3394 29.007C16.9404 29.007 19.0561 31.1227 19.0561 33.7237C19.0561 36.324 16.9404 38.4397 14.3394 38.4397C11.7384 38.4397 9.62265 36.324 9.62265 33.7237C9.62265 31.1227 11.7384 29.007 14.3394 29.007ZM84.0898 28.7547C86.6908 28.7547 88.8065 30.8704 88.8065 33.4714C88.8065 36.0717 86.6908 38.1874 84.0898 38.1874C81.4888 38.1874 79.373 36.0717 79.373 33.4714C79.373 30.8704 81.4888 28.7547 84.0898 28.7547ZM14.3394 29.5575C14.2494 29.5575 14.1616 29.5657 14.0724 29.5717L14.2749 33.042L13.9787 33.0592L13.8152 33.3082L10.8932 31.386C10.7927 31.5352 10.7034 31.6927 10.6224 31.854L13.7477 33.4237L13.6142 33.69L13.7477 33.9562L10.5962 35.5387C10.6757 35.703 10.7634 35.8627 10.8632 36.0135L13.8152 34.0717L13.9779 34.3207L14.2749 34.3372L14.0687 37.8757C14.1587 37.881 14.2479 37.8892 14.3394 37.8892C14.4332 37.8892 14.5239 37.881 14.6154 37.875L14.4092 34.3372L14.7062 34.3207L14.8696 34.0717L17.8172 36.0105C17.9169 35.8597 18.0046 35.7 18.0841 35.5365L14.9364 33.9562L15.0707 33.69L14.9364 33.4237L18.0586 31.857C17.9769 31.695 17.8884 31.5375 17.7879 31.389L14.8696 33.3082L14.7062 33.0592L14.4092 33.042L14.6117 29.5717C14.5217 29.5657 14.4317 29.5575 14.3394 29.5575ZM13.6959 34.8097L11.1992 36.4522C11.7931 37.134 12.6017 37.623 13.5212 37.8075L13.6959 34.8097ZM14.9889 34.8097L15.1637 37.8067C16.0816 37.6215 16.8894 37.1317 17.4819 36.4492L14.9889 34.8097ZM84.0898 29.3052C83.9998 29.3052 83.9113 29.3134 83.8228 29.3187L84.0253 32.7897L83.7283 32.8069L83.5648 33.0552L80.6435 31.1337C80.543 31.2829 80.4538 31.4404 80.3728 31.6017L83.498 33.1714L83.3645 33.4377L83.498 33.7032L80.3458 35.2864C80.426 35.4499 80.513 35.6097 80.6135 35.7612L83.5648 33.8187L83.729 34.0684L84.0253 34.0857L83.819 37.6234C83.909 37.6294 83.9983 37.6369 84.0898 37.6369C84.1828 37.6369 84.2743 37.6287 84.3658 37.6227L84.1595 34.0857L84.4558 34.0684L84.62 33.8187L87.5675 35.7582C87.6673 35.6067 87.755 35.4477 87.8345 35.2834L84.6868 33.7032L84.8203 33.4377L84.6868 33.1714L87.8083 31.6039C87.7265 31.4427 87.638 31.2852 87.5375 31.1359L84.62 33.0552L84.4565 32.8069L84.1595 32.7897L84.362 29.3187C84.2713 29.3134 84.182 29.3052 84.0898 29.3052ZM83.4463 34.5567L80.9495 36.1992C81.5428 36.8817 82.3513 37.3707 83.2715 37.5552L83.4463 34.5567ZM84.7385 34.5567L84.9133 37.5544C85.832 37.3692 86.6398 36.8794 87.2323 36.1969L84.7385 34.5567ZM10.4064 32.3632C10.2587 32.7907 10.1739 33.2467 10.1739 33.7237C10.1739 34.179 10.2497 34.617 10.3862 35.0272L13.0486 33.69L10.4064 32.3632ZM18.2739 32.3655L15.6362 33.69L18.2941 35.025C18.4291 34.6147 18.5056 34.1782 18.5056 33.7237C18.5056 33.2475 18.4209 32.7915 18.2739 32.3655ZM80.1568 32.1102C80.0083 32.5377 79.9235 32.9944 79.9235 33.4714C79.9235 33.9267 80 34.3639 80.1358 34.7742L82.799 33.4377L80.1568 32.1102ZM88.0235 32.1132L85.3858 33.4377L88.0445 34.7719C88.1795 34.3624 88.2553 33.9259 88.2553 33.4714C88.2553 32.9952 88.1713 32.5392 88.0235 32.1132ZM21.4495 1.58286L21.3622 1.58252C20.7813 1.58835 18.7436 1.75946 15.7365 3.78161C15.7365 3.78161 15.7365 3.84311 15.6757 3.84311C15.6143 3.84311 15.6143 3.90386 15.5535 3.90386C15.492 3.90386 15.3705 3.96461 15.309 4.02536C15.1875 4.14761 14.943 4.33061 14.7607 4.45286C14.2725 4.81886 13.662 5.24561 13.4183 5.42861C13.3575 5.42861 13.2968 5.49011 13.236 5.55086C9.759 8.11286 5.48925 12.0159 4.6965 12.8086L4.635 12.8701C4.52625 12.9796 4.40175 13.1994 4.275 13.4686H4.413C4.422 13.5939 4.58625 14.0769 4.76925 14.5074C6.282 17.1361 6.6555 19.2939 5.87775 20.9191C4.9665 22.8256 2.8305 23.2404 2.59425 23.2816C2.52975 23.4939 2.46975 23.6739 2.42775 23.7901C1.98225 24.2266 1.64625 24.7284 1.64625 25.1911C1.64625 26.0446 1.89075 30.1929 5.916 32.8764L6.77025 32.9371C6.77025 32.6319 6.831 32.3274 6.8925 32.0221C6.95325 31.6561 7.07475 31.2294 7.25775 30.8634C8.41725 27.9969 11.223 26.1061 14.3333 26.1061C18.1147 26.1061 21.2865 28.7896 21.897 32.5104C21.9577 32.9371 22.0192 33.3031 22.0192 33.7299V34.1574L23.8485 34.2789H76.4873C76.4265 34.1574 76.4265 33.9744 76.4265 33.8521V32.6934C76.731 28.7289 80.0858 25.6179 84.051 25.6179C87.6495 25.6179 90.8213 28.1799 91.5533 31.7176C91.614 32.0836 91.6755 32.5104 91.6755 32.9371L91.675 33.4867C91.673 33.7326 91.6632 33.9861 91.614 34.2789L93.8978 34.2784C94.1029 34.2723 95.3896 34.1766 97.9575 32.6934C100.201 31.3703 100.22 27.6077 100.215 26.62L100.214 26.4721L98.8725 23.1781L98.6895 22.6906H98.6753L98.5853 22.4694C98.139 22.4964 97.7018 22.5136 97.2832 22.5136C94.1475 22.5144 91.7978 21.7599 90.2865 20.2651C88.6927 18.6901 88.5967 16.8256 88.5983 16.3756L88.4738 16.3546C87.9679 16.2284 87.4503 16.1001 86.9294 15.9715L86.3032 15.8173C82.5427 14.8927 78.7768 13.9966 78.0735 13.8459C77.7075 13.7851 74.7188 13.2361 71.4248 11.2231L70.998 10.9794C60.7508 4.75736 53.6753 1.58561 49.8938 1.58561L21.5225 1.58531C21.5099 1.58475 21.4855 1.58355 21.4495 1.58286ZM13.5249 29.6385C12.6227 29.8185 11.8277 30.2925 11.2374 30.9532L13.6959 32.5702L13.5249 29.6385ZM15.1592 29.64L14.9889 32.571L17.4444 30.9555C16.8541 30.2947 16.0599 29.8207 15.1592 29.64ZM83.2753 29.3862C82.373 29.5662 81.578 30.0394 80.9878 30.7002L83.4463 32.3179L83.2753 29.3862ZM84.9095 29.3869L84.7385 32.3179L87.194 30.7032C86.6045 30.0424 85.8103 29.5684 84.9095 29.3869ZM83.4299 22.557C83.7959 22.5585 84.1589 22.611 84.5227 22.6357C84.8849 22.68 85.2449 22.7407 85.6049 22.7925L86.6714 23.0167L85.5944 22.8495C85.2329 22.8165 84.8737 22.7752 84.5129 22.7505C84.1507 22.7452 83.7899 22.713 83.4292 22.7295C83.0677 22.7392 82.7069 22.7422 82.3492 22.788C81.9899 22.812 81.6359 22.8772 81.2827 22.9395C80.9317 23.013 80.5822 23.0947 80.2424 23.2057L79.7354 23.3767L79.2427 23.586C78.9224 23.739 78.5999 23.8927 78.3029 24.0877C77.9969 24.2677 77.7127 24.4815 77.4352 24.7005C77.1592 24.9232 76.9019 25.1662 76.6529 25.4167C76.4114 25.6755 76.1819 25.9447 75.9674 26.2252C75.7559 26.5095 75.5617 26.805 75.3757 27.105C75.0104 27.711 74.7089 28.3545 74.4652 29.0197C74.3429 29.3512 74.2357 29.6895 74.1464 30.0307C74.0579 30.369 73.9777 30.7252 73.9334 31.0522L73.9289 31.0867L73.9162 31.122L73.7512 31.6005L73.6747 31.8217L73.4309 31.824L67.2412 31.881C65.1779 31.908 63.1147 31.9057 61.0514 31.9027L48.6719 31.8967C46.6087 31.905 44.5454 31.8705 42.4822 31.8525L36.2924 31.7902L30.1034 31.728L27.0089 31.6777L25.4519 31.644C24.7987 31.605 24.2107 31.2727 23.8319 30.7785L23.7764 30.7072L23.7577 30.6232C23.6759 30.2655 23.5514 29.877 23.4179 29.511C23.2837 29.1397 23.1284 28.7767 22.9559 28.4205C22.7879 28.0627 22.5929 27.7192 22.3904 27.381C22.1842 27.0435 21.9584 26.7202 21.7192 26.4067C21.2347 25.785 20.6782 25.2202 20.0542 24.741C19.7414 24.5017 19.4114 24.2887 19.0739 24.084C18.7274 23.8965 18.3764 23.7165 18.0074 23.5732C17.8282 23.4885 17.6347 23.4405 17.4479 23.3745C17.2612 23.3077 17.0699 23.2552 16.8757 23.214C16.4917 23.1075 16.0964 23.0572 15.7019 22.9965C15.3037 22.971 14.9054 22.9162 14.5042 22.9327L13.9019 22.9395L13.3004 22.9875C12.8977 23.0062 12.5024 23.0962 12.1019 23.148C11.7052 23.2192 11.3122 23.3182 10.9147 23.3977L9.74393 23.7255L8.58967 24.1185L9.72068 23.658L10.8764 23.2597C11.2702 23.1532 11.6632 23.0377 12.0614 22.9477C12.4642 22.8772 12.8617 22.7685 13.2712 22.7317L13.8824 22.6552L14.4989 22.6215C14.9099 22.587 15.3232 22.6237 15.7364 22.6335C16.1474 22.6777 16.5614 22.7122 16.9672 22.8052C17.1727 22.8397 17.3752 22.8862 17.5739 22.9485C17.7734 23.0085 17.9789 23.0505 18.1724 23.1315C18.5684 23.2657 18.9487 23.4382 19.3259 23.6227L19.8727 23.9332C20.0497 24.0457 20.2199 24.168 20.3939 24.2857C21.0727 24.7785 21.6817 25.365 22.2134 26.0115C22.4767 26.337 22.7257 26.6737 22.9537 27.0247C23.1779 27.3772 23.3939 27.7357 23.5814 28.1092C23.7734 28.4797 23.9474 28.86 24.1012 29.25C24.2407 29.6062 24.3637 29.958 24.4687 30.3405C24.7289 30.6322 25.1122 30.8107 25.4759 30.8175L27.0134 30.804L30.1087 30.7867L36.2984 30.7897L42.4882 30.792C44.5514 30.7965 46.6147 30.7837 48.6779 30.8137L61.0559 30.9382C63.1192 30.957 65.1824 30.9765 67.2457 31.0252L73.2014 31.143L73.2884 30.9135C73.3507 30.5437 73.4354 30.2062 73.5337 29.8612C73.6364 29.502 73.7579 29.1502 73.8952 28.803C74.1689 28.1107 74.5019 27.4402 74.9024 26.811C75.1057 26.4975 75.3269 26.1975 75.5602 25.9057C75.7987 25.6185 76.0522 25.344 76.3177 25.0822C76.5899 24.8272 76.8712 24.5827 77.1704 24.36C77.4712 24.1417 77.7787 23.9295 78.1057 23.7532C78.4244 23.562 78.7672 23.4142 79.1069 23.2687L79.6259 23.0722L80.1577 22.9155C80.5124 22.8157 80.8754 22.7452 81.2377 22.6845C81.6022 22.635 81.9659 22.5832 82.3327 22.5727C82.6987 22.5405 83.0647 22.5525 83.4299 22.557ZM3.7245 14.8621C3.543 15.3826 3.4155 15.7981 3.4155 15.7981C3.117 17.2869 2.937 19.1281 2.92875 21.3159L2.92125 21.3526C2.928 21.5799 2.9085 21.8236 2.87325 22.0674C3.4545 21.8746 4.41975 21.4239 4.88775 20.4361C5.496 19.1521 5.12925 17.3334 3.79875 15.0294L3.7695 14.9709C3.756 14.9401 3.73875 14.8966 3.7245 14.8621ZM89.7067 16.5579C89.7345 17.0649 89.919 18.3639 91.0778 19.4979C92.5058 20.8966 94.8923 21.5244 98.1435 21.3841L98.0798 21.2259L97.9575 20.8606C97.9575 20.8606 97.896 20.8606 97.896 20.7991L97.8353 20.7384C97.8353 20.6776 97.7745 20.6776 97.7745 20.6161C97.7137 20.6161 97.7138 20.5554 97.6523 20.4939L97.5308 20.3724C97.5308 20.3116 97.47 20.2501 97.4085 20.1894C97.3477 20.1894 97.3478 20.1286 97.2863 20.0679L96.9818 19.7626C96.921 19.7011 96.7988 19.5796 96.738 19.5189C96.6765 19.5189 96.6158 19.4574 96.5543 19.3966C96.4935 19.3351 96.372 19.2136 96.2497 19.1521C96.189 19.0914 96.1275 19.0914 96.0667 19.0306C95.8838 18.9084 95.7008 18.7869 95.5178 18.6646C94.7858 18.1764 93.3218 17.6889 93.3218 17.6889C92.529 17.4444 91.3087 17.0784 89.9062 16.5909L89.7067 16.5579ZM45.4099 3.17066C47.1169 3.17066 48.4024 3.23216 48.4144 3.23216C52.5304 3.65291 57.1496 5.80916 57.3446 5.90066C64.9699 9.46241 70.8724 13.7614 70.9309 13.8042L72.3266 14.8264L43.6444 14.3794L41.9689 3.26066L42.5786 3.23216C43.4531 3.19166 44.4064 3.17066 45.4099 3.17066ZM23.9453 3.13886L40.6756 3.22286L42.1688 14.2441L41.5306 14.2374C41.4236 14.236 35.113 14.1616 28.14 13.9279L27.3628 13.9013C26.9731 13.8876 26.582 13.8735 26.1904 13.8588L25.407 13.8288C21.3589 13.6701 17.3292 13.4552 14.3663 13.1679L13.5503 13.0884L13.9321 12.3631C14.3686 11.5336 18.2543 4.27661 21.0616 3.42761C21.4838 3.24086 22.4956 3.13886 23.9453 3.13886ZM45.4099 4.27241C44.6524 4.27241 43.9256 4.28516 43.2409 4.30841L44.5946 13.2919L68.8031 13.6699C66.6056 12.1917 62.1611 9.36641 56.8774 6.89816C56.8294 6.87566 52.2289 4.72916 48.3319 4.33091C48.3161 4.33091 47.0659 4.27241 45.4099 4.27241ZM23.9453 4.24061C22.1618 4.24061 21.6151 4.39736 21.5206 4.43036L21.4058 4.47461C19.6073 4.97111 16.6876 9.65486 15.3016 12.1471C18.0589 12.3876 21.5687 12.5734 25.1175 12.7154L26.0858 12.7531C32.5405 12.997 38.9099 13.0997 40.9058 13.1274L39.7133 4.32011L23.9453 4.24061Z" fill="#211F20"/>
</g>
</g>
</g>
</svg>
